<svg width="268" height="341" viewBox="0 0 268 341" fill="none" xmlns="http://www.w3.org/2000/svg">
<rect width="268" height="341" rx="20" fill="#EEF0F7"/>
<path d="M120.995 168.049C124.065 168.049 126.561 165.571 126.561 162.526C126.561 159.478 124.065 157 120.995 157C117.926 157 115.43 159.478 115.43 162.525C115.43 165.571 117.926 168.049 120.995 168.049ZM120.995 158.984C122.962 158.984 124.562 160.573 124.562 162.525C124.562 164.476 122.962 166.065 120.995 166.065C119.029 166.065 117.429 164.477 117.429 162.526C117.429 160.574 119.029 158.984 120.995 158.984Z" fill="#C6C7D0"/>
<path d="M112 185.77C112.234 185.77 112.47 185.689 112.66 185.523L128.963 171.275L139.259 181.494C139.65 181.882 140.282 181.882 140.672 181.494C141.063 181.107 141.063 180.48 140.672 180.092L135.868 175.323L145.044 165.349L156.298 175.59C156.705 175.96 157.338 175.932 157.711 175.528C158.083 175.125 158.056 174.497 157.649 174.127L145.656 163.214C145.46 163.037 145.199 162.948 144.936 162.954C144.671 162.966 144.421 163.082 144.242 163.277L134.454 173.918L129.714 169.213C129.34 168.843 128.742 168.824 128.347 169.169L111.339 184.033C110.925 184.395 110.885 185.022 111.249 185.434C111.447 185.657 111.723 185.77 112 185.77Z" fill="#C6C7D0"/>
</svg>
