<svg width="40" height="40" viewBox="0 0 40 40" fill="none" xmlns="http://www.w3.org/2000/svg">
<path d="M20 9.375C14.1413 9.375 9.375 14.1414 9.375 20C9.375 25.8586 14.1413 30.625 20 30.625C25.8587 30.625 30.625 25.8586 30.625 20C30.625 14.1414 25.8587 9.375 20 9.375ZM18.3427 25.179L13.7852 20.6215L15.4425 18.9642L18.3427 21.8645L24.5576 15.6496L26.2148 17.3069L18.3427 25.179Z" fill="#A64AC9"/>
<path d="M37.819 14.7335C36.8549 13.7695 36.324 12.4877 36.324 11.1244C36.324 7.01758 32.9828 3.67641 28.8761 3.67641C27.5126 3.67641 26.2309 3.14547 25.2669 2.18148C23.8601 0.774766 21.9897 0 20.0004 0C18.011 0 16.1406 0.774766 14.7339 2.18148C13.7699 3.14547 12.4881 3.67641 11.1247 3.67641C7.01787 3.67641 3.67678 7.01758 3.67678 11.1244C3.67678 12.4877 3.14584 13.7695 2.18178 14.7335C-0.722051 17.6375 -0.722051 22.3625 2.18178 25.2665C3.14584 26.2305 3.67678 27.5123 3.67678 28.8756C3.67678 32.9824 7.01795 36.3236 11.1247 36.3236C12.4881 36.3236 13.7698 36.8545 14.7339 37.8185C16.1406 39.2252 18.011 40 20.0004 40C21.9897 40 23.8601 39.2252 25.2669 37.8185C26.2308 36.8545 27.5126 36.3236 28.8761 36.3236C32.9829 36.3236 36.324 32.9824 36.324 28.8756C36.324 27.5123 36.8549 26.2305 37.819 25.2665C40.7229 22.3625 40.7229 17.6375 37.819 14.7335ZM32.9691 20C32.9691 27.1509 27.1514 32.9688 20.0004 32.9688C12.8494 32.9688 7.03162 27.1509 7.03162 20C7.03162 12.8491 12.8494 7.03125 20.0004 7.03125C27.1514 7.03125 32.9691 12.8491 32.9691 20Z" fill="#A64AC9"/>
</svg>
