<svg width="40" height="40" viewBox="0 0 40 40" fill="none" xmlns="http://www.w3.org/2000/svg">
<path d="M34.8238 2.35294H31.2944V5.88235C31.2944 6.58823 30.7062 7.05882 30.1179 7.05882C29.5297 7.05882 28.9415 6.58823 28.9415 5.88235V2.35294H10.1179V5.88235C10.1179 6.58823 9.5297 7.05882 8.94146 7.05882C8.35323 7.05882 7.76499 6.58823 7.76499 5.88235V2.35294H4.23558C2.47088 2.35294 1.17676 3.88235 1.17676 5.88235V10.1176H38.8238V5.88235C38.8238 3.88235 36.7062 2.35294 34.8238 2.35294ZM1.17676 12.5882V34.1176C1.17676 36.2353 2.47088 37.6471 4.35323 37.6471H34.9415C36.8238 37.6471 38.9415 36.1176 38.9415 34.1176V12.5882H1.17676ZM11.6473 32.3529H8.82382C8.35323 32.3529 7.88264 32 7.88264 31.4118V28.4706C7.88264 28 8.23558 27.5294 8.82382 27.5294H11.765C12.2356 27.5294 12.7062 27.8823 12.7062 28.4706V31.4118C12.5885 32 12.2356 32.3529 11.6473 32.3529ZM11.6473 21.7647H8.82382C8.35323 21.7647 7.88264 21.4118 7.88264 20.8235V17.8823C7.88264 17.4118 8.23558 16.9412 8.82382 16.9412H11.765C12.2356 16.9412 12.7062 17.2941 12.7062 17.8823V20.8235C12.5885 21.4118 12.2356 21.7647 11.6473 21.7647ZM21.0591 32.3529H18.1179C17.6473 32.3529 17.1768 32 17.1768 31.4118V28.4706C17.1768 28 17.5297 27.5294 18.1179 27.5294H21.0591C21.5297 27.5294 22.0003 27.8823 22.0003 28.4706V31.4118C22.0003 32 21.6473 32.3529 21.0591 32.3529ZM21.0591 21.7647H18.1179C17.6473 21.7647 17.1768 21.4118 17.1768 20.8235V17.8823C17.1768 17.4118 17.5297 16.9412 18.1179 16.9412H21.0591C21.5297 16.9412 22.0003 17.2941 22.0003 17.8823V20.8235C22.0003 21.4118 21.6473 21.7647 21.0591 21.7647ZM30.4709 32.3529H27.5297C27.0591 32.3529 26.5885 32 26.5885 31.4118V28.4706C26.5885 28 26.9415 27.5294 27.5297 27.5294H30.4709C30.9415 27.5294 31.4121 27.8823 31.4121 28.4706V31.4118C31.4121 32 31.0591 32.3529 30.4709 32.3529ZM30.4709 21.7647H27.5297C27.0591 21.7647 26.5885 21.4118 26.5885 20.8235V17.8823C26.5885 17.4118 26.9415 16.9412 27.5297 16.9412H30.4709C30.9415 16.9412 31.4121 17.2941 31.4121 17.8823V20.8235C31.4121 21.4118 31.0591 21.7647 30.4709 21.7647Z" fill="#A64AC9"/>
</svg>
