<svg width="525" height="391" viewBox="0 0 525 391" fill="none" xmlns="http://www.w3.org/2000/svg">
<rect width="525" height="391" rx="18.3821" fill="#EEF0F7"/>
<path d="M236.12 189.677C242.142 189.677 247.04 184.815 247.04 178.84C247.04 172.862 242.142 168 236.12 168C230.099 168 225.201 172.862 225.201 178.839C225.201 184.815 230.099 189.677 236.12 189.677ZM236.12 171.892C239.979 171.892 243.118 175.01 243.118 178.839C243.118 182.667 239.979 185.785 236.12 185.785C232.262 185.785 229.123 182.669 229.123 178.84C229.123 175.012 232.262 171.892 236.12 171.892Z" fill="#C6C7D0"/>
<path d="M218.472 224.443C218.93 224.443 219.393 224.283 219.766 223.958L251.751 196.006L271.95 216.054C272.717 216.815 273.956 216.815 274.723 216.054C275.489 215.293 275.489 214.063 274.723 213.302L265.298 203.947L283.299 184.38L305.379 204.47C306.177 205.196 307.418 205.142 308.149 204.35C308.881 203.558 308.828 202.326 308.028 201.6L284.499 180.191C284.115 179.843 283.603 179.67 283.087 179.681C282.568 179.705 282.077 179.932 281.726 180.314L262.523 201.191L253.223 191.96C252.49 191.234 251.318 191.197 250.541 191.875L217.175 221.035C216.362 221.745 216.283 222.975 216.999 223.783C217.387 224.221 217.928 224.443 218.472 224.443Z" fill="#C6C7D0"/>
</svg>
