<svg width="20" height="20" viewBox="0 0 20 20" fill="none" xmlns="http://www.w3.org/2000/svg">
<g clip-path="url(#clip0_115_94)">
<path d="M10 0.742188C12.1357 0.743789 14.2052 1.48352 15.8579 2.83609C17.5107 4.18866 18.6452 6.07093 19.0692 8.1641C19.4933 10.2573 19.1808 12.4327 18.1847 14.3218C17.1886 16.211 15.5702 17.6978 13.6035 18.5305C11.3445 19.4678 8.80633 19.4734 6.54318 18.546C4.28003 17.6186 2.47564 15.8336 1.5239 13.5805C0.572165 11.3275 0.550362 8.78949 1.46325 6.52045C2.37615 4.25142 4.1496 2.43566 6.39648 1.46953C7.53646 0.98703 8.76212 0.739641 10 0.742188ZM10 0C4.47734 0 0 4.47734 0 10C0 15.5227 4.47734 20 10 20C15.5227 20 20 15.5227 20 10C20 4.47734 15.5227 0 10 0Z" fill="#A64AC9"/>
<path d="M15.7422 9.71474L12.3191 6.2624C12.2821 6.22297 12.2375 6.19137 12.188 6.16946C12.1385 6.14755 12.0852 6.13577 12.0311 6.13483C11.977 6.13388 11.9232 6.14378 11.873 6.16395C11.8228 6.18411 11.7772 6.21414 11.7387 6.25224C11.7003 6.29034 11.6699 6.33576 11.6493 6.3858C11.6288 6.43585 11.6184 6.48951 11.6189 6.54362C11.6194 6.59772 11.6308 6.65118 11.6523 6.70084C11.6738 6.75049 11.705 6.79533 11.7441 6.83271L14.4832 9.59482H4.5457C4.43827 9.59482 4.33524 9.6375 4.25927 9.71346C4.1833 9.78943 4.14063 9.89247 4.14062 9.9999C4.14063 10.1073 4.1833 10.2104 4.25927 10.2863C4.33524 10.3623 4.43827 10.405 4.5457 10.405H14.4828L11.7438 13.1671C11.7046 13.2045 11.6734 13.2493 11.6519 13.299C11.6304 13.3486 11.619 13.4021 11.6185 13.4562C11.618 13.5103 11.6284 13.5639 11.649 13.614C11.6695 13.664 11.6999 13.7095 11.7383 13.7476C11.7768 13.7857 11.8224 13.8157 11.8726 13.8358C11.9228 13.856 11.9766 13.8659 12.0307 13.865C12.0848 13.864 12.1382 13.8522 12.1876 13.8303C12.2371 13.8084 12.2817 13.7768 12.3187 13.7374L15.7422 10.2851C15.8175 10.2092 15.8597 10.1067 15.8597 9.9999C15.8597 9.89306 15.8175 9.79055 15.7422 9.71474Z" fill="#A64AC9"/>
</g>
<defs>
<clipPath id="clip0_115_94">
<rect width="20" height="20" fill="white"/>
</clipPath>
</defs>
</svg>
