<svg width="70" height="70" viewBox="0 0 70 70" fill="none" xmlns="http://www.w3.org/2000/svg">
<rect width="70" height="70" rx="20" fill="#EEF0F7"/>
<path d="M27.9003 33.4165C29.4048 33.4165 30.6287 32.2017 30.6287 30.7087C30.6287 29.2148 29.4048 28 27.9003 28C26.3957 28 25.1719 29.2148 25.1719 30.7082C25.1719 32.2017 26.3957 33.4165 27.9003 33.4165ZM27.9003 28.9726C28.8645 28.9726 29.6488 29.7517 29.6488 30.7082C29.6488 31.6648 28.8645 32.4438 27.9003 32.4438C26.9361 32.4438 26.1517 31.6653 26.1517 30.7087C26.1517 29.7522 26.9361 28.9726 27.9003 28.9726Z" fill="#C6C7D0"/>
<path d="M23.4902 42.1033C23.6048 42.1033 23.7205 42.0635 23.8135 41.9822L31.8057 34.998L36.8529 40.0074C37.0445 40.1975 37.3541 40.1975 37.5457 40.0074C37.7372 39.8172 37.7372 39.5099 37.5457 39.3197L35.1906 36.9821L39.6886 32.0928L45.2057 37.1129C45.4051 37.2943 45.7152 37.2807 45.898 37.0827C46.0807 36.8848 46.0675 36.577 45.8676 36.3956L39.9885 31.0463C39.8924 30.9592 39.7646 30.9159 39.6357 30.9188C39.5059 30.9247 39.3834 30.9816 39.2957 31.0769L34.4974 36.2935L32.1736 33.9869C31.9904 33.8055 31.6974 33.7963 31.5034 33.9655L23.1663 41.2518C22.963 41.4293 22.9434 41.7367 23.1223 41.9385C23.2193 42.0479 23.3545 42.1033 23.4902 42.1033Z" fill="#C6C7D0"/>
</svg>
