<svg width="1200" height="320" viewBox="0 0 1200 320" fill="none" xmlns="http://www.w3.org/2000/svg">
<rect width="1200" height="320" rx="20" fill="white"/>
<path d="M574.518 153.471C580.204 153.471 584.829 148.88 584.829 143.237C584.829 137.591 580.204 133 574.518 133C568.831 133 564.206 137.591 564.206 143.235C564.206 148.88 568.831 153.471 574.518 153.471ZM574.518 136.676C578.162 136.676 581.126 139.62 581.126 143.235C581.126 146.851 578.162 149.795 574.518 149.795C570.874 149.795 567.909 146.852 567.909 143.237C567.909 139.622 570.874 136.676 574.518 136.676Z" fill="#C6C7D0"/>
<path d="M557.853 186.302C558.286 186.302 558.723 186.151 559.075 185.844L589.28 159.448L608.355 178.38C609.079 179.099 610.25 179.099 610.974 178.38C611.698 177.662 611.698 176.5 610.974 175.782L602.073 166.947L619.073 148.468L639.924 167.441C640.677 168.127 641.849 168.075 642.54 167.327C643.231 166.579 643.181 165.416 642.425 164.73L620.206 144.513C619.843 144.184 619.36 144.02 618.873 144.031C618.382 144.053 617.919 144.268 617.588 144.629L599.453 164.344L590.671 155.627C589.978 154.941 588.871 154.906 588.138 155.546L556.629 183.084C555.86 183.754 555.786 184.916 556.462 185.679C556.829 186.092 557.34 186.302 557.853 186.302Z" fill="#C6C7D0"/>
</svg>
