<svg width="38" height="26" viewBox="0 0 38 26" fill="none" xmlns="http://www.w3.org/2000/svg">
<path d="M25.9181 11.5483C26.9947 11.5483 28.1594 11.0719 29.2945 10.1718C29.3298 10.1424 29.3709 10.113 29.4065 10.0777C28.7711 8.86597 28.4181 7.50126 28.4299 5.94831C29.1652 5.60713 29.671 4.86598 29.671 4.00125C29.671 2.81301 28.7123 1.85422 27.5298 1.85422C26.3415 1.85422 25.377 2.81301 25.377 4.00125C25.377 4.76595 25.7768 5.43655 26.3768 5.81303C25.9064 7.23655 24.7299 8.63655 23.124 10.0072C23.1298 10.0307 23.1476 10.0483 23.1594 10.066C23.8358 11.0072 24.771 11.5483 25.9181 11.5483Z" fill="#FCCD04"/>
<path d="M9.57721 5.94831C9.58898 7.46008 9.25365 8.7895 8.64775 9.97775C8.69485 10.0189 8.73607 10.0601 8.78303 10.0954C9.94773 11.0483 11.1477 11.5542 12.2537 11.5542C12.5066 11.5542 12.7535 11.5248 12.989 11.4718C13.7654 11.2954 14.4243 10.8483 14.9594 10.1365C14.9654 10.1248 14.9772 10.113 14.9829 10.1013C13.3242 8.68951 12.1066 7.26007 11.6243 5.81303C12.2243 5.43655 12.6242 4.76595 12.6242 4.00125C12.6242 2.81301 11.6594 1.85422 10.4713 1.85422C9.28898 1.85422 8.33008 2.81301 8.33008 4.00125C8.33008 4.86598 8.84191 5.61301 9.57721 5.94831Z" fill="#FCCD04"/>
<path d="M35.4943 1.85422C34.2061 1.85422 33.1649 2.89538 33.1649 4.18361C33.1649 4.84243 33.4355 5.43656 33.8766 5.86596C32.9236 8.0601 31.5533 9.88361 30.0238 11.0954C28.3944 12.3895 26.5944 12.9836 24.9296 12.6189C23.812 12.366 22.8943 11.713 22.2061 10.7542C21.3356 9.54832 20.8237 7.86597 20.7591 5.94243C21.5119 5.40126 22.0002 4.51302 22.0002 3.51302C22.0002 1.85422 20.6531 0.507141 18.9944 0.507141C17.3354 0.507141 16.0004 1.85422 16.0004 3.51302C16.0004 4.5895 16.559 5.53069 17.406 6.06008C17.3296 7.97774 16.806 9.65419 15.9001 10.8424C15.2237 11.7483 14.3296 12.3777 13.2473 12.6189C11.5472 13.0013 9.69437 12.3601 8.0355 11.0013C6.52973 9.76007 5.18265 7.93067 4.2473 5.73656C4.61193 5.32479 4.83554 4.77774 4.83554 4.18361C4.83554 2.89538 3.78846 1.85422 2.50026 1.85422C1.21206 1.85422 0.176758 2.89538 0.176758 4.18361C0.176758 5.2542 0.8885 6.15422 1.86492 6.43068L6.7473 20.9483H31.2474L36.1354 6.42479C37.1062 6.14833 37.8237 5.24832 37.8237 4.18361C37.8237 2.89538 36.7767 1.85422 35.4943 1.85422Z" fill="#FCCD04"/>
<path d="M4.5127 22.1253H33.4874V25.493H4.5127V22.1253Z" fill="#FCCD04"/>
</svg>
