<svg width="1482" height="1265" viewBox="0 0 1482 1265" fill="none" xmlns="http://www.w3.org/2000/svg">
<path d="M462.942 1264.06C620.226 1277.37 683.617 1043.26 838.682 1031.2C1005.91 1018.21 1167.9 1254.24 1321.71 1197.32C1460.95 1145.78 1474.68 944.822 1481.22 793.392C1487.17 655.534 1444.36 509.805 1356.4 394.175C1279.09 292.556 1148.03 259.155 1033.48 204.808C948.841 164.656 862.522 147.813 774.451 118.096C664.719 81.0699 553.972 -30.7572 452.087 8.63536C351.299 47.604 385.886 211.832 318.64 294.33C233.936 398.245 54.9292 415.296 14.5467 545.414C-27.3617 680.449 28.9551 841.005 109.109 969.469C191.54 1101.58 312.555 1251.34 462.942 1264.06Z" fill="url(#paint0_linear_236_22)"/>
<defs>
<linearGradient id="paint0_linear_236_22" x1="314.895" y1="1213.03" x2="1218.92" y2="258.582" gradientUnits="userSpaceOnUse">
<stop stop-color="#17E9E0"/>
<stop offset="1" stop-color="#F8F5FA"/>
</linearGradient>
</defs>
</svg>
