<svg width="247" height="314" viewBox="0 0 247 314" fill="none" xmlns="http://www.w3.org/2000/svg">
<rect width="246.32" height="313.415" rx="18.3821" fill="#EEF0F7"/>
<path d="M111.207 154.455C114.028 154.455 116.323 152.177 116.323 149.378C116.323 146.577 114.028 144.3 111.207 144.3C108.386 144.3 106.092 146.577 106.092 149.377C106.092 152.177 108.386 154.455 111.207 154.455ZM111.207 146.123C113.015 146.123 114.486 147.584 114.486 149.377C114.486 151.171 113.015 152.631 111.207 152.631C109.4 152.631 107.929 151.172 107.929 149.378C107.929 147.585 109.4 146.123 111.207 146.123Z" fill="#C6C7D0"/>
<path d="M102.939 170.742C103.154 170.742 103.37 170.668 103.545 170.515L118.53 157.42L127.993 166.812C128.352 167.169 128.932 167.169 129.292 166.812C129.651 166.456 129.651 165.88 129.292 165.523L124.876 161.14L133.309 151.973L143.654 161.386C144.027 161.726 144.609 161.7 144.951 161.329C145.294 160.958 145.269 160.381 144.895 160.041L133.872 150.011C133.692 149.848 133.452 149.767 133.21 149.772C132.967 149.783 132.737 149.89 132.573 150.069L123.576 159.849L119.219 155.525C118.876 155.185 118.327 155.167 117.963 155.484L102.331 169.146C101.95 169.479 101.913 170.055 102.249 170.433C102.431 170.638 102.684 170.742 102.939 170.742Z" fill="#C6C7D0"/>
</svg>
