<svg width="1057" height="1265" viewBox="0 0 1057 1265" fill="none" xmlns="http://www.w3.org/2000/svg">
<path d="M38.1303 1264.21C195.414 1277.52 258.805 1043.4 413.871 1031.35C581.099 1018.35 743.089 1254.39 896.901 1197.46C1036.14 1145.93 1049.87 944.969 1056.41 793.539C1062.36 655.681 1019.55 509.952 931.585 394.322C854.282 292.703 723.223 259.302 608.665 204.955C524.029 164.804 437.711 147.96 349.639 118.243C239.908 81.217 129.16 -30.6101 27.2759 8.78245C-73.5123 47.7511 -38.9254 211.979 -106.171 294.477C-190.875 398.392 -369.882 415.443 -410.265 545.561C-452.173 680.596 -395.856 841.152 -315.702 969.616C-233.271 1101.73 -112.256 1251.48 38.1303 1264.21Z" fill="url(#paint0_linear_115_13)"/>
<defs>
<linearGradient id="paint0_linear_115_13" x1="-109.917" y1="1213.18" x2="794.107" y2="258.729" gradientUnits="userSpaceOnUse">
<stop stop-color="#17E9E0"/>
<stop offset="1" stop-color="#F8F5FA"/>
</linearGradient>
</defs>
</svg>
